<svg width="108" height="20" viewBox="0 0 108 20" fill="none" xmlns="http://www.w3.org/2000/svg">
<path d="M8.5215 19.345C6.8655 19.345 5.45483 18.9847 4.2895 18.264C3.12417 17.5357 2.231 16.5237 1.61 15.228C0.996667 13.9323 0.69 12.4297 0.69 10.72C0.69 9.01033 0.996667 7.50767 1.61 6.212C2.231 4.91633 3.12417 3.90817 4.2895 3.1875C5.45483 2.45917 6.8655 2.095 8.5215 2.095C10.1698 2.095 11.5767 2.45917 12.742 3.1875C13.915 3.90817 14.8082 4.91633 15.4215 6.212C16.0348 7.50767 16.3415 9.01033 16.3415 10.72C16.3415 12.4297 16.0348 13.9323 15.4215 15.228C14.8082 16.5237 13.915 17.5357 12.742 18.264C11.5767 18.9847 10.1698 19.345 8.5215 19.345ZM8.5215 17.0565C9.6945 17.0718 10.6682 16.815 11.4425 16.286C12.2245 15.7493 12.811 15.0057 13.202 14.055C13.593 13.0967 13.7885 11.985 13.7885 10.72C13.7885 9.455 13.593 8.351 13.202 7.408C12.811 6.45733 12.2245 5.7175 11.4425 5.1885C10.6682 4.6595 9.6945 4.39117 8.5215 4.3835C7.3485 4.36817 6.371 4.625 5.589 5.154C4.81467 5.683 4.232 6.42667 3.841 7.385C3.45 8.34333 3.25067 9.455 3.243 10.72C3.23533 11.985 3.427 13.0928 3.818 14.0435C4.209 14.9865 4.7955 15.7225 5.5775 16.2515C6.36717 16.7805 7.3485 17.0488 8.5215 17.0565Z" fill="url(#paint0_linear_12_185)"/>
<path d="M34.491 19L34.5025 11.2605C34.5025 10.3635 34.2725 9.66583 33.8125 9.1675C33.3525 8.6615 32.7468 8.4085 31.9955 8.4085C31.5355 8.4085 31.1138 8.51583 30.7305 8.7305C30.3548 8.9375 30.0482 9.25183 29.8105 9.6735C29.5805 10.0875 29.4655 10.6088 29.4655 11.2375L28.304 10.651C28.2887 9.777 28.4727 9.01033 28.856 8.351C29.247 7.69167 29.776 7.18183 30.443 6.8215C31.11 6.4535 31.8575 6.2695 32.6855 6.2695C34.0272 6.2695 35.066 6.672 35.802 7.477C36.538 8.282 36.906 9.3515 36.906 10.6855L36.8945 19H34.491ZM19.5985 19V6.58H21.7375V10.168H22.0135V19H19.5985ZM27.0505 19L27.062 11.3065C27.062 10.4018 26.832 9.69267 26.372 9.179C25.9197 8.66533 25.3102 8.4085 24.5435 8.4085C23.7845 8.4085 23.1712 8.66917 22.7035 9.1905C22.2435 9.71183 22.0135 10.3942 22.0135 11.2375L20.8635 10.5015C20.8635 9.68883 21.059 8.96433 21.45 8.328C21.841 7.69167 22.37 7.1895 23.037 6.8215C23.704 6.4535 24.4592 6.2695 25.3025 6.2695C26.1842 6.2695 26.9355 6.45733 27.5565 6.833C28.1775 7.201 28.649 7.7185 28.971 8.3855C29.3007 9.0525 29.4655 9.82683 29.4655 10.7085L29.454 19H27.0505ZM48.6092 19V12.8935C48.6092 12.4105 48.5671 11.916 48.4827 11.41C48.4061 10.8963 48.2527 10.421 48.0227 9.984C47.8004 9.547 47.4822 9.19433 47.0682 8.926C46.6619 8.65767 46.1291 8.5235 45.4697 8.5235C45.0404 8.5235 44.6341 8.59633 44.2507 8.742C43.8674 8.88 43.5301 9.10617 43.2387 9.4205C42.9551 9.73483 42.7289 10.1488 42.5602 10.6625C42.3992 11.1762 42.3187 11.801 42.3187 12.537L40.8237 11.9735C40.8237 10.8465 41.0346 9.85367 41.4562 8.995C41.8779 8.12867 42.4836 7.454 43.2732 6.971C44.0629 6.488 45.0174 6.2465 46.1367 6.2465C46.9954 6.2465 47.7161 6.3845 48.2987 6.6605C48.8814 6.9365 49.3529 7.30067 49.7132 7.753C50.0812 8.19767 50.3611 8.6845 50.5527 9.2135C50.7444 9.7425 50.8747 10.26 50.9437 10.766C51.0127 11.272 51.0472 11.7167 51.0472 12.1V19H48.6092ZM39.8807 19V6.58H42.0312V10.168H42.3187V19H39.8807ZM54.2726 4.5445V2.21H56.6761V4.5445H54.2726ZM54.2726 19V6.58H56.6761V19H54.2726ZM65.4425 19.345C64.1699 19.345 63.0889 19.0613 62.1995 18.494C61.3102 17.9267 60.6279 17.1485 60.1525 16.1595C59.6849 15.1705 59.4472 14.0473 59.4395 12.79C59.4472 11.5097 59.6925 10.3788 60.1755 9.3975C60.6585 8.4085 61.3485 7.63417 62.2455 7.0745C63.1425 6.51483 64.2197 6.235 65.477 6.235C66.834 6.235 67.9917 6.57233 68.95 7.247C69.916 7.92167 70.5524 8.8455 70.859 10.0185L68.467 10.7085C68.2294 10.0108 67.8384 9.47033 67.294 9.087C66.7574 8.696 66.1402 8.5005 65.4425 8.5005C64.6529 8.5005 64.005 8.68833 63.499 9.064C62.993 9.432 62.6174 9.938 62.372 10.582C62.1267 11.226 62.0002 11.962 61.9925 12.79C62.0002 14.0703 62.2915 15.1053 62.8665 15.895C63.4492 16.6847 64.3079 17.0795 65.4425 17.0795C66.2169 17.0795 66.8417 16.9032 67.317 16.5505C67.8 16.1902 68.168 15.6765 68.421 15.0095L70.859 15.5845C70.4527 16.7958 69.7819 17.7273 68.8465 18.379C67.9112 19.023 66.7765 19.345 65.4425 19.345ZM78.2584 19.345C77.0164 19.345 75.9392 19.0652 75.0269 18.5055C74.1145 17.9458 73.4092 17.1753 72.9109 16.194C72.4202 15.205 72.1749 14.0665 72.1749 12.7785C72.1749 11.4828 72.4279 10.3443 72.9339 9.363C73.4399 8.374 74.149 7.60733 75.0614 7.063C75.9737 6.511 77.0394 6.235 78.2584 6.235C79.5004 6.235 80.5775 6.51483 81.4899 7.0745C82.4022 7.63417 83.1075 8.40467 83.6059 9.386C84.1042 10.3673 84.3534 11.4982 84.3534 12.7785C84.3534 14.0742 84.1004 15.2165 83.5944 16.2055C83.096 17.1868 82.3907 17.9573 81.4784 18.517C80.5661 19.069 79.4927 19.345 78.2584 19.345ZM78.2584 17.0795C79.4467 17.0795 80.3322 16.6808 80.9149 15.8835C81.5052 15.0785 81.8004 14.0435 81.8004 12.7785C81.8004 11.4828 81.5014 10.4478 80.9034 9.6735C80.313 8.8915 79.4314 8.5005 78.2584 8.5005C77.4534 8.5005 76.7902 8.6845 76.2689 9.0525C75.7475 9.41283 75.3604 9.915 75.1074 10.559C74.8544 11.1953 74.7279 11.9352 74.7279 12.7785C74.7279 14.0818 75.0269 15.1245 75.6249 15.9065C76.2229 16.6885 77.1007 17.0795 78.2584 17.0795ZM86.8805 19V6.58H89.0195V9.593L88.7205 9.202C88.8738 8.80333 89.0732 8.43917 89.3185 8.1095C89.5638 7.77217 89.8475 7.49617 90.1695 7.2815C90.4838 7.0515 90.8327 6.87517 91.216 6.7525C91.607 6.62217 92.0057 6.5455 92.412 6.5225C92.8183 6.49183 93.2093 6.511 93.585 6.58V8.834C93.1787 8.72667 92.7263 8.696 92.228 8.742C91.7373 8.788 91.285 8.94517 90.871 9.2135C90.48 9.4665 90.1695 9.77317 89.9395 10.1335C89.7172 10.4938 89.5562 10.8963 89.4565 11.341C89.3568 11.778 89.307 12.2418 89.307 12.7325V19H86.8805ZM101.059 19.345C99.8246 19.345 98.7398 19.0767 97.8044 18.54C96.8768 17.9957 96.1523 17.2405 95.6309 16.2745C95.1173 15.3008 94.8604 14.1738 94.8604 12.8935C94.8604 11.5365 95.1134 10.3597 95.6194 9.363C96.1331 8.36633 96.8461 7.59583 97.7584 7.0515C98.6708 6.50717 99.7326 6.235 100.944 6.235C102.209 6.235 103.286 6.53017 104.175 7.1205C105.065 7.70317 105.728 8.535 106.165 9.616C106.61 10.697 106.786 11.9812 106.694 13.4685H104.29V12.5945C104.275 11.1532 103.999 10.0875 103.462 9.3975C102.933 8.7075 102.125 8.3625 101.036 8.3625C99.8323 8.3625 98.9276 8.742 98.3219 9.501C97.7163 10.26 97.4134 11.3563 97.4134 12.79C97.4134 14.1547 97.7163 15.2127 98.3219 15.964C98.9276 16.7077 99.8016 17.0795 100.944 17.0795C101.695 17.0795 102.343 16.9108 102.887 16.5735C103.439 16.2285 103.869 15.7378 104.175 15.1015L106.533 15.849C106.05 16.9607 105.318 17.8232 104.336 18.4365C103.355 19.0422 102.263 19.345 101.059 19.345ZM96.6314 13.4685V11.594H105.498V13.4685H96.6314Z" fill="white"/>
<defs>
<linearGradient id="paint0_linear_12_185" x1="0" y1="10" x2="18" y2="10" gradientUnits="userSpaceOnUse">
<stop stop-color="#5383FF"/>
<stop offset="1" stop-color="#0FB8FE"/>
</linearGradient>
</defs>
</svg>
